<svg width="1600" height="900" viewBox="0 0 1600 900" fill="none" xmlns="http://www.w3.org/2000/svg" role="img" aria-label="Abstract dashboard background for CBT platform project">
  <defs>
    <linearGradient id="cbt-bg" x1="120" y1="80" x2="1500" y2="860" gradientUnits="userSpaceOnUse">
      <stop stop-color="#0F172A" />
      <stop offset="1" stop-color="#0F766E" />
    </linearGradient>
    <linearGradient id="card" x1="0" y1="0" x2="1" y2="1">
      <stop stop-color="#E2E8F0" stop-opacity="0.28" />
      <stop offset="1" stop-color="#E2E8F0" stop-opacity="0.08" />
    </linearGradient>
  </defs>

  <rect width="1600" height="900" fill="url(#cbt-bg)" />

  <g opacity="0.9">
    <rect x="150" y="180" width="1300" height="560" rx="28" fill="#020617" fill-opacity="0.38" />
    <rect x="190" y="220" width="420" height="220" rx="20" fill="url(#card)" stroke="#99F6E4" stroke-opacity="0.35" />
    <rect x="640" y="220" width="320" height="220" rx="20" fill="url(#card)" stroke="#99F6E4" stroke-opacity="0.35" />
    <rect x="990" y="220" width="420" height="220" rx="20" fill="url(#card)" stroke="#99F6E4" stroke-opacity="0.35" />
    <rect x="190" y="470" width="590" height="230" rx="20" fill="url(#card)" stroke="#99F6E4" stroke-opacity="0.35" />
    <rect x="810" y="470" width="600" height="230" rx="20" fill="url(#card)" stroke="#99F6E4" stroke-opacity="0.35" />
  </g>

  <g stroke="#5EEAD4" stroke-width="4" stroke-linecap="round" stroke-opacity="0.85">
    <path d="M250 330H540" />
    <path d="M250 365H500" />
    <path d="M700 330H900" />
    <path d="M700 365H860" />
    <path d="M1040 330H1340" />
    <path d="M1040 365H1290" />
    <path d="M250 560H710" />
    <path d="M250 600H650" />
    <path d="M860 560H1330" />
    <path d="M860 600H1260" />
  </g>

  <text x="130" y="118" fill="#ECFEFF" opacity="0.95" font-family="Inter, Arial, sans-serif" font-size="44" font-weight="700">
    CBT Platform
  </text>
  <text x="130" y="163" fill="#99F6E4" opacity="0.85" font-family="Inter, Arial, sans-serif" font-size="24">
    Real-world therapy workflow • structured sessions • outcome tracking
  </text>
</svg>
