<svg width="1600" height="900" viewBox="0 0 1600 900" fill="none" xmlns="http://www.w3.org/2000/svg" role="img" aria-label="Data-focused sentiment analysis background">
  <defs>
    <linearGradient id="sent-bg" x1="0" y1="0" x2="1600" y2="900" gradientUnits="userSpaceOnUse">
      <stop stop-color="#111827" />
      <stop offset="1" stop-color="#1D4ED8" />
    </linearGradient>
    <linearGradient id="bar-pos" x1="0" y1="1" x2="0" y2="0">
      <stop stop-color="#34D399" />
      <stop offset="1" stop-color="#6EE7B7" />
    </linearGradient>
    <linearGradient id="bar-neg" x1="0" y1="1" x2="0" y2="0">
      <stop stop-color="#F87171" />
      <stop offset="1" stop-color="#FCA5A5" />
    </linearGradient>
    <linearGradient id="bar-neu" x1="0" y1="1" x2="0" y2="0">
      <stop stop-color="#93C5FD" />
      <stop offset="1" stop-color="#BFDBFE" />
    </linearGradient>
  </defs>

  <rect width="1600" height="900" fill="url(#sent-bg)" />

  <g opacity="0.25" stroke="#DBEAFE" stroke-width="1">
    <path d="M120 760H1480" />
    <path d="M120 680H1480" />
    <path d="M120 600H1480" />
    <path d="M120 520H1480" />
    <path d="M120 440H1480" />
    <path d="M120 360H1480" />
  </g>

  <g>
    <rect x="220" y="470" width="130" height="290" rx="12" fill="url(#bar-pos)" />
    <rect x="410" y="560" width="130" height="200" rx="12" fill="url(#bar-neu)" />
    <rect x="600" y="620" width="130" height="140" rx="12" fill="url(#bar-neg)" />
    <rect x="790" y="410" width="130" height="350" rx="12" fill="url(#bar-pos)" />
    <rect x="980" y="535" width="130" height="225" rx="12" fill="url(#bar-neu)" />
    <rect x="1170" y="585" width="130" height="175" rx="12" fill="url(#bar-neg)" />
  </g>

  <g fill="#E5E7EB" opacity="0.9" font-family="Inter, Arial, sans-serif" font-size="18">
    <text x="230" y="790">Positive</text>
    <text x="433" y="790">Neutral</text>
    <text x="640" y="790">Negative</text>
    <text x="825" y="790">Positive</text>
    <text x="1003" y="790">Neutral</text>
    <text x="1210" y="790">Negative</text>
  </g>

  <path d="M220 430C330 360 470 390 600 330C730 270 860 310 990 250C1110 195 1240 220 1360 180" stroke="#FDE68A" stroke-width="6" stroke-linecap="round" stroke-opacity="0.9"/>

  <text x="120" y="118" fill="#F3F4F6" opacity="0.96" font-family="Inter, Arial, sans-serif" font-size="44" font-weight="700">
    Sentiment App
  </text>
  <text x="120" y="163" fill="#BFDBFE" opacity="0.88" font-family="Inter, Arial, sans-serif" font-size="24">
    Data pipeline • NLP scoring • dashboard insights
  </text>
</svg>
